<svg xmlns="http://www.w3.org/2000/svg" viewBox="0 0 100 100" width="100" height="100">
  <defs>
    <clipPath id="shieldClip">
      <path d="M10,8 L50,2 L90,8 L90,58 C90,76 50,92 50,92 C50,92 10,76 10,58 Z"/>
    </clipPath>
  </defs>
  <g transform="translate(0,2)">
    <path d="M10,8 L50,2 L90,8 L90,58 C90,76 50,92 50,92 C50,92 10,76 10,58 Z" fill="#002868" stroke="#b22234" stroke-width="2.5"/>
    <rect x="50" y="2" width="40" height="90" fill="#b22234" clip-path="url(#shieldClip)" opacity="0.18"/>
    <g transform="translate(50,48)">
      <rect x="-4" y="-28" width="8" height="52" rx="1" fill="#fff"/>
      <path d="M-4,-28 L-4,-28 C-4,-28 -28,-28 -28,-16 C-28,-4 -4,-4 -4,-4" fill="none" stroke="#fff" stroke-width="7" stroke-linecap="round" stroke-linejoin="round"/>
      <path d="M4,-28 L4,-28 C4,-28 28,-28 28,-16 C28,-4 4,-4 4,-4" fill="none" stroke="#f0e6c8" stroke-width="7" stroke-linecap="round" stroke-linejoin="round"/>
      <rect x="-6" y="-2" width="12" height="3" rx="1" fill="#b22234"/>
    </g>
  </g>
</svg>
